<svg id="Capa_1" enable-background="new 0 0 511.976 511.976" height="512" viewBox="0 0 511.976 511.976" width="512" xmlns="http://www.w3.org/2000/svg"><g><path d="m318.923 274.675-18.169 30.048h208.877c1.431-9.923 2.219-19.961 2.345-30.048z"/><path d="m355.652 213.932-18.589 30.742h173.364c-5.98-51.646-28.991-99.453-66.31-136.772-43.774-43.774-101.975-67.882-163.882-67.882h-.838c-46.667 0-91.731 13.87-130.321 40.11-32.707 22.24-58.856 52.073-76.515 87.074z"/><path d="m282.613 334.722-18.154 30.023h-264.459l15.08 107.21h380.516l3.54-2.101c33.749-20.032 62.02-48.545 81.757-82.454 9.653-16.585 17.143-34.299 22.355-52.679h-220.635z"/><path d="m247.541 334.746 59.517-98.429-246.757-40.73-55.013 139.159z"/></g></svg>